<svg width="29" height="29" viewBox="0 0 29 29" fill="none" xmlns="http://www.w3.org/2000/svg">
<path d="M14.26 0C6.39303 0 0 6.39303 0 14.26C0 22.127 6.39303 28.52 14.26 28.52C22.127 28.52 28.52 22.127 28.52 14.26C28.52 6.39303 22.127 0 14.26 0ZM14.26 1.24C21.4565 1.24 27.28 7.06345 27.28 14.26C27.28 14.3042 27.2768 14.3478 27.2764 14.392C26.8798 14.3554 26.4216 14.3206 25.839 14.3C25.0152 14.2707 23.9768 14.2792 22.7995 14.3375C22.8432 14.0335 22.8738 13.7252 22.8746 13.4087C22.9346 12.2477 22.5448 11.1615 21.9107 10.2021C22.0639 9.67284 22.2436 8.99944 22.2885 8.23559C22.3397 7.36493 22.2646 6.39949 21.5656 5.74711L21.3864 5.58H21.1418C19.4783 5.58 18.3396 6.27639 17.6434 6.82848C16.638 6.43933 15.5076 6.2 14.26 6.2C13.0053 6.2 11.864 6.44268 10.8173 6.8309C10.1214 6.27855 8.98181 5.58 7.31648 5.58H7.07309L6.89387 5.7459C6.21299 6.37814 6.15026 7.31709 6.19273 8.18352C6.23019 8.94753 6.39947 9.64233 6.54996 10.1973C5.90518 11.1754 5.51824 12.2897 5.51824 13.3918C5.51824 13.709 5.54774 14.0182 5.5909 14.323C4.47133 14.271 3.4733 14.261 2.68102 14.2891C2.0984 14.3097 1.64017 14.3441 1.24363 14.3811C1.24326 14.3406 1.24 14.3006 1.24 14.26C1.24 7.06345 7.06345 1.24 14.26 1.24ZM7.68582 6.90113C8.93672 7.01967 9.87784 7.57824 10.3136 7.96555L10.6042 8.22227L10.9626 8.07574C11.9431 7.67201 13.0367 7.44 14.26 7.44C15.4833 7.44 16.5772 7.67317 17.4835 8.06969L17.8468 8.22953L18.1435 7.96555C18.5793 7.57811 19.5221 7.01936 20.7736 6.90113C20.94 7.17702 21.0846 7.56937 21.0497 8.16293C21.0079 8.87328 20.8179 9.64699 20.6743 10.1065L20.5811 10.4056L20.7664 10.6587C21.3798 11.4952 21.6926 12.4006 21.6395 13.3579L21.6382 13.3748V13.3918C21.6382 14.9389 21.0811 16.1772 19.8945 17.0948C18.7079 18.0124 16.8347 18.6 14.1982 18.6C11.5618 18.6 9.68739 18.0124 8.50078 17.0948C7.31417 16.1772 6.75824 14.9389 6.75824 13.3918C6.75824 12.4836 7.08617 11.4846 7.69187 10.6587L7.87352 10.4116L7.78633 10.1174C7.64266 9.6289 7.46655 8.83754 7.43152 8.12297C7.40239 7.52862 7.54306 7.15296 7.68582 6.90113ZM4.26855 14.8933C4.7067 14.8989 5.20891 14.9226 5.71199 14.9478C5.76006 15.1411 5.81487 15.3313 5.88152 15.517C3.83096 15.5602 2.29693 15.7664 1.35141 15.9432C1.31143 15.633 1.27959 15.3202 1.2618 15.0035C1.96057 14.9372 2.94562 14.8764 4.26855 14.8933ZM24.2514 14.903C25.5735 14.8862 26.5582 14.9471 27.257 15.0132C27.2392 15.3254 27.2079 15.6337 27.1686 15.9396C26.1893 15.7599 24.6138 15.5537 22.5101 15.5206C22.5754 15.3386 22.6298 15.1517 22.6772 14.9623C23.2322 14.9326 23.7736 14.9091 24.2514 14.903ZM6.14551 16.1321C6.51549 16.8735 7.04414 17.5355 7.74273 18.0757C8.69787 18.8142 9.93961 19.3303 11.4555 19.6063C11.2572 19.8101 11.0768 20.0338 10.9166 20.2699L10.8791 20.2372C10.8825 20.2333 10.5708 20.3892 10.1053 20.4309C9.6397 20.4726 9.0654 20.46 8.55648 20.46C7.79698 20.46 7.46245 20.1012 6.92777 19.4477C6.6317 19.0486 6.27074 18.7254 5.92027 18.4801C5.56141 18.2289 5.25528 18.0516 4.87645 17.9885L4.82559 17.98H4.77352C4.48418 17.98 4.20421 18.0009 3.94281 18.2997C3.81211 18.4491 3.72203 18.7256 3.78055 18.9596C3.83906 19.1937 3.98713 19.3375 4.11961 19.4259C4.96698 19.9908 5.11673 21.1088 5.64781 22.1032C6.14376 23.0915 7.21411 23.56 8.30824 23.56H9.92V26.5377C5.56004 24.9987 2.2721 21.2069 1.44586 16.5559C2.39502 16.3772 3.98445 16.1622 6.14551 16.1321ZM22.2473 16.137C24.4562 16.1559 26.0903 16.3705 27.0754 16.5523C26.2502 21.2049 22.9611 24.9983 18.6 26.5377V23.3118C18.6 22.3293 18.2774 21.246 17.716 20.3425C17.5456 20.0682 17.3451 19.8088 17.1214 19.576C18.5569 19.2924 19.7361 18.7853 20.6537 18.0757C21.3508 17.5366 21.8783 16.8767 22.2473 16.137ZM13.4535 19.9018H15.19C15.6939 19.9018 16.2319 20.3034 16.6625 20.9964C17.0931 21.6895 17.36 22.6202 17.36 23.3118V26.907C16.3664 27.1493 15.3287 27.28 14.26 27.28C13.1912 27.28 12.1536 27.1493 11.16 26.907V23.3118C11.16 22.6355 11.4501 21.707 11.9096 21.011C12.3691 20.3149 12.9496 19.9018 13.4535 19.9018ZM6.39133 20.6344C6.92811 21.1911 7.57797 21.7 8.55648 21.7C9.03957 21.7 9.64254 21.7174 10.2155 21.6661C10.2175 21.6659 10.2195 21.6651 10.2215 21.6649C10.146 21.8819 10.0897 22.1002 10.0423 22.32H8.30824C7.54358 22.32 7.00338 22.0437 6.75461 21.5462L6.74977 21.5377L6.74613 21.5305C6.6442 21.3411 6.5104 20.9626 6.39133 20.6344Z" fill="white"/>
</svg>
