<svg width="15" height="23" viewBox="0 0 15 23" fill="none" xmlns="http://www.w3.org/2000/svg">
<path d="M6.67287 0.0134659C5.80242 0.0909481 5.08434 0.237967 4.38923 0.482334C4.06776 0.59359 3.5459 0.835972 3.24114 1.01279C2.55646 1.41411 1.88222 2.01013 1.41255 2.63595C0.702823 3.57964 0.249851 4.74188 0.0348453 6.17829C0.00979611 6.33921 -0.00481591 6.47828 0.00144639 6.48822C0.00770868 6.49815 0.0995556 6.55576 0.20184 6.61735L0.391796 6.72861L1.79455 6.88755C2.5669 6.97496 3.22444 7.04847 3.25993 7.05245L3.32046 7.05642L3.37891 6.75841C3.72542 4.96042 4.4602 3.85977 5.70639 3.26375C6.26374 2.99952 6.86074 2.87436 7.58508 2.87436C8.59748 2.87436 9.46168 3.15448 10.2006 3.72269C10.5576 3.99884 10.9458 4.42003 11.1796 4.78956C11.6764 5.57035 11.81 6.59153 11.5241 7.42397C11.4427 7.66237 11.2381 8.03389 11.0753 8.23852C10.7288 8.67759 10.2006 9.19017 9.36566 9.89744C8.12364 10.9524 7.56003 11.5127 7.11958 12.1325C6.26791 13.3285 5.92557 14.6398 5.97776 16.5093L5.99028 17L7.4327 16.996L8.87511 16.9901L8.87929 16.7815C8.89181 16.1815 8.95652 15.3729 9.02332 15.0033C9.1423 14.3358 9.41784 13.7398 9.84368 13.2351C10.0399 13.0007 10.7851 12.3073 11.4427 11.7451C13.3506 10.112 14.1814 9.13851 14.6322 8.00608C15.0977 6.84185 15.1228 5.45313 14.699 4.2293C14.3859 3.32932 13.7952 2.479 12.9957 1.78364C11.8601 0.79425 10.5117 0.243925 8.72899 0.0432663C8.39083 0.00353241 7.0006 -0.014349 6.67287 0.0134659Z" fill="white"/>
<path d="M6.03889 19.2174C6.00185 19.4304 6 19.4804 6 21.2174V23H7.5H9V21.2C8.99815 19.5913 8.99444 19.3826 8.96667 19.2065L8.93519 19.0109L7.50741 19.0043L6.07963 19L6.03889 19.2174Z" fill="white"/>
</svg>
