<svg width="30" height="30" viewBox="0 0 30 30" fill="none" xmlns="http://www.w3.org/2000/svg">
<path d="M5.4 2.3999C3.75029 2.3999 2.4 3.75019 2.4 5.3999V24.5999C2.4 26.2496 3.75029 27.5999 5.4 27.5999H24.6C26.2497 27.5999 27.6 26.2496 27.6 24.5999V5.3999C27.6 3.75019 26.2497 2.3999 24.6 2.3999H5.4ZM5.4 3.5999H24.6C25.6011 3.5999 26.4 4.39881 26.4 5.3999V24.5999C26.4 25.601 25.6011 26.3999 24.6 26.3999H5.4C4.39891 26.3999 3.6 25.601 3.6 24.5999V5.3999C3.6 4.39881 4.39891 3.5999 5.4 3.5999ZM8.4 6.60693C7.74287 6.60693 7.15153 6.80335 6.71367 7.17178C6.27581 7.54021 6.00703 8.09061 6.00703 8.67998C6.00703 9.80029 6.97877 10.6737 8.21485 10.7601L8.21719 10.7612C8.27609 10.7813 8.33778 10.792 8.4 10.7929C9.76381 10.7929 10.793 9.83755 10.793 8.67998C10.7929 8.66943 10.7925 8.65887 10.7918 8.64834C10.7307 7.5082 9.71427 6.60693 8.4 6.60693ZM8.4 7.79287C9.23534 7.79287 9.56518 8.16593 9.60117 8.69522C9.59388 9.20896 9.27606 9.60693 8.4 9.60693C7.56876 9.60693 7.19297 9.18124 7.19297 8.67998C7.19297 8.42935 7.28442 8.24048 7.47656 8.07881C7.6687 7.91714 7.97713 7.79287 8.4 7.79287ZM6.6 11.3999C6.44088 11.3999 6.28827 11.4631 6.17576 11.5757C6.06324 11.6882 6.00002 11.8408 6 11.9999V23.3999C6.00002 23.559 6.06324 23.7116 6.17576 23.8242C6.28827 23.9367 6.44088 23.9999 6.6 23.9999H10.2C10.3591 23.9999 10.5117 23.9367 10.6242 23.8242C10.7368 23.7116 10.8 23.559 10.8 23.3999V19.8808V11.9999C10.8 11.8408 10.7368 11.6882 10.6242 11.5757C10.5117 11.4631 10.3591 11.3999 10.2 11.3999H6.6ZM12 11.3999C11.8409 11.3999 11.6883 11.4631 11.5758 11.5757C11.4632 11.6882 11.4 11.8408 11.4 11.9999V23.3999C11.4 23.559 11.4632 23.7116 11.5758 23.8242C11.6883 23.9367 11.8409 23.9999 12 23.9999H15.6C15.7591 23.9999 15.9117 23.9367 16.0242 23.8242C16.1368 23.7116 16.2 23.559 16.2 23.3999V17.3999C16.2 16.9021 16.3358 16.4069 16.575 16.0827C16.8142 15.7585 17.1159 15.5639 17.6895 15.5741C18.2809 15.5843 18.594 15.7869 18.8309 16.105C19.0677 16.4231 19.2 16.8999 19.2 17.3999V23.3999C19.2 23.559 19.2632 23.7116 19.3758 23.8242C19.4883 23.9367 19.6409 23.9999 19.8 23.9999H23.4C23.5591 23.9999 23.7117 23.9367 23.8242 23.8242C23.9368 23.7116 24 23.559 24 23.3999V16.9569C24 15.18 23.4737 13.7725 22.5715 12.8202C21.6693 11.8679 20.4145 11.3999 19.0875 11.3999C17.8263 11.3999 16.8665 11.8228 16.2 12.2542V11.9999C16.2 11.8408 16.1368 11.6882 16.0242 11.5757C15.9117 11.4631 15.7591 11.3999 15.6 11.3999H12ZM7.2 12.5999H9.6V19.8808V22.7999H7.2V12.5999ZM12.6 12.5999H15V13.5362C15 13.662 15.0396 13.7847 15.1131 13.8867C15.1867 13.9888 15.2904 14.0652 15.4098 14.1051C15.5291 14.145 15.6579 14.1464 15.7781 14.1091C15.8982 14.0718 16.0036 13.9976 16.0793 13.8972C16.0793 13.8972 17.0215 12.5999 19.0875 12.5999C20.1395 12.5999 21.0416 12.9495 21.7008 13.6452C22.3599 14.341 22.8 15.4129 22.8 16.9569V22.7999H20.4V17.3999C20.4 16.6999 20.2323 15.9762 19.7941 15.3878C19.356 14.7994 18.6191 14.3897 17.7105 14.3741C16.7973 14.3579 16.0485 14.7761 15.6094 15.3714C15.1702 15.9667 15 16.6977 15 17.3999V22.7999H12.6V12.5999Z" fill="#FFFCFC"/>
</svg>
