<svg width="30" height="30" viewBox="0 0 30 30" fill="none" xmlns="http://www.w3.org/2000/svg">
<path d="M17.4 1.80005C16.8375 1.80005 16.2984 2.02974 15.9 2.40005C15.5016 2.77036 15.218 3.26021 15 3.8438C14.6133 4.88442 14.4516 6.23677 14.4188 7.8188C11.5406 7.90786 8.89219 8.65317 6.76875 9.8813C6.12891 9.2813 5.31328 8.9813 4.5 8.9813C3.65391 8.9813 2.80547 9.30708 2.15625 9.9563C0.855469 11.2571 0.855469 13.343 2.15625 14.6438L2.30625 14.7938C1.9875 15.6211 1.8 16.493 1.8 17.4C1.8 20.1165 3.33984 22.5516 5.7375 24.2625C8.13516 25.9735 11.4047 27 15 27C18.5953 27 21.8648 25.9735 24.2625 24.2625C26.6602 22.5516 28.2 20.1165 28.2 17.4C28.2 16.493 28.0125 15.6211 27.6938 14.7938L27.8438 14.6438C29.1445 13.343 29.1445 11.2571 27.8438 9.9563C27.1945 9.30708 26.3461 8.9813 25.5 8.9813C24.6867 8.9813 23.8711 9.2813 23.2313 9.8813C21.1172 8.6602 18.4805 7.91489 15.6188 7.8188C15.6563 6.32817 15.818 5.0813 16.125 4.2563C16.2984 3.78989 16.5164 3.45474 16.725 3.26255C16.9336 3.07036 17.1234 3.00005 17.4 3.00005C17.6766 3.00005 17.8102 3.07505 18.0188 3.2438C18.2273 3.41255 18.4711 3.68911 18.7875 4.01255C19.3523 4.59145 20.2172 5.22896 21.6562 5.36255C21.9234 6.74302 23.1445 7.80005 24.6 7.80005C26.25 7.80005 27.6 6.45005 27.6 4.80005C27.6 3.15005 26.25 1.80005 24.6 1.80005C23.1633 1.80005 21.9445 2.82661 21.6562 4.1813C20.5875 4.07817 20.1164 3.66567 19.65 3.18755C19.3805 2.91099 19.132 2.58755 18.7875 2.3063C18.443 2.02505 17.9625 1.80005 17.4 1.80005ZM24.6 3.00005C25.6008 3.00005 26.4 3.79927 26.4 4.80005C26.4 5.80083 25.6008 6.60005 24.6 6.60005C23.5992 6.60005 22.8 5.80083 22.8 4.80005C22.8 3.79927 23.5992 3.00005 24.6 3.00005ZM15 9.00005C18.3656 9.00005 21.4055 9.96802 23.5688 11.5125C25.732 13.0571 27 15.136 27 17.4C27 19.6641 25.732 21.743 23.5688 23.2875C21.4055 24.8321 18.3656 25.8 15 25.8C11.6344 25.8 8.59453 24.8321 6.43125 23.2875C4.26797 21.743 3 19.6641 3 17.4C3 15.136 4.26797 13.0571 6.43125 11.5125C8.59453 9.96802 11.6344 9.00005 15 9.00005ZM4.5 10.1625C4.92188 10.1625 5.34844 10.2891 5.71875 10.5563C4.51641 11.4188 3.53203 12.4618 2.85 13.6313C2.14922 12.7782 2.19609 11.604 3 10.8C3.42891 10.3711 3.96562 10.1625 4.5 10.1625ZM25.5 10.1625C26.0344 10.1625 26.5711 10.3711 27 10.8C27.8039 11.604 27.8508 12.7782 27.15 13.6313C26.468 12.4618 25.4836 11.4188 24.2812 10.5563C24.6516 10.2891 25.0781 10.1625 25.5 10.1625ZM10.2 13.2C8.88047 13.2 7.8 14.2805 7.8 15.6C7.8 16.9196 8.88047 18 10.2 18C11.5195 18 12.6 16.9196 12.6 15.6C12.6 14.2805 11.5195 13.2 10.2 13.2ZM19.8 13.2C18.4805 13.2 17.4 14.2805 17.4 15.6C17.4 16.9196 18.4805 18 19.8 18C21.1195 18 22.2 16.9196 22.2 15.6C22.2 14.2805 21.1195 13.2 19.8 13.2ZM10.2 14.4C10.8703 14.4 11.4 14.9297 11.4 15.6C11.4 16.2704 10.8703 16.8 10.2 16.8C9.52969 16.8 9 16.2704 9 15.6C9 14.9297 9.52969 14.4 10.2 14.4ZM19.8 14.4C20.4703 14.4 21 14.9297 21 15.6C21 16.2704 20.4703 16.8 19.8 16.8C19.1297 16.8 18.6 16.2704 18.6 15.6C18.6 14.9297 19.1297 14.4 19.8 14.4ZM20.4938 20.3063C20.4609 20.311 20.4305 20.3157 20.4 20.325C20.2102 20.3625 20.0508 20.4868 19.9687 20.6625C19.9687 20.6625 19.6547 21.0985 18.8625 21.6C18.0703 22.1016 16.8352 22.6125 15 22.6125C13.1648 22.6125 11.9297 22.1016 11.1375 21.6C10.3453 21.0985 10.0312 20.6625 10.0312 20.6625C9.89531 20.4493 9.63984 20.3438 9.39375 20.4C9.19922 20.4493 9.04219 20.5899 8.97422 20.7797C8.90625 20.9672 8.93672 21.1758 9.05625 21.3375C9.05625 21.3375 9.51797 22.0032 10.4813 22.6125C11.4445 23.2219 12.9352 23.8125 15 23.8125C17.0648 23.8125 18.5555 23.2219 19.5188 22.6125C20.482 22.0032 20.9438 21.3375 20.9438 21.3375C21.1242 21.1641 21.1781 20.8946 21.0773 20.6649C20.9766 20.4352 20.7445 20.2922 20.4938 20.3063Z" fill="white"/>
</svg>
