<svg width="24" height="24" viewBox="0 0 24 24" fill="none" xmlns="http://www.w3.org/2000/svg">
<path d="M21.1607 13.17C21.21 12.786 21.247 12.396 21.247 12C21.247 11.604 21.21 11.214 21.1607 10.83L23.7692 8.844C24.0036 8.664 24.0714 8.34 23.9172 8.076L21.4505 3.918C21.2964 3.66 20.9757 3.552 20.6982 3.66L17.6271 4.866C16.992 4.392 16.2951 3.99 15.5428 3.684L15.0803 0.504C15.0248 0.222 14.7719 0 14.4636 0H9.53022C9.22189 0 8.96905 0.222 8.91972 0.504L8.45721 3.684C7.70487 3.99 7.00803 4.386 6.37285 4.866L3.30182 3.66C3.02432 3.558 2.70365 3.66 2.54948 3.918L0.0827853 8.076C-0.0713831 8.334 -0.00354889 8.658 0.230787 8.844L2.83315 10.83C2.78382 11.214 2.74681 11.604 2.74681 12C2.74681 12.396 2.78382 12.786 2.83315 13.17L0.230787 15.156C-0.00354889 15.336 -0.0713831 15.66 0.0827853 15.924L2.54948 20.082C2.70365 20.34 3.02432 20.448 3.30182 20.34L6.37285 19.134C7.00803 19.608 7.70487 20.01 8.45721 20.316L8.91972 23.496C8.96905 23.778 9.22189 24 9.53022 24H14.4636C14.7719 24 15.0248 23.778 15.0741 23.496L15.5366 20.316C16.289 20.01 16.9858 19.614 17.621 19.134L20.692 20.34C20.9695 20.442 21.2902 20.34 21.4444 20.082L23.911 15.924C24.0652 15.666 23.9974 15.342 23.763 15.156L21.1607 13.17ZM11.9969 16.2C9.61039 16.2 7.6802 14.322 7.6802 12C7.6802 9.678 9.61039 7.8 11.9969 7.8C14.3834 7.8 16.3136 9.678 16.3136 12C16.3136 14.322 14.3834 16.2 11.9969 16.2Z" fill="white"/>
</svg>
