<svg width="30" height="30" viewBox="0 0 30 30" fill="none" xmlns="http://www.w3.org/2000/svg">
<path d="M15 1.19995C7.38557 1.19995 1.2 7.38553 1.2 15C1.2 22.6144 7.38557 28.8 15 28.8C22.6144 28.8 28.8 22.6144 28.8 15C28.8 7.38553 22.6144 1.19995 15 1.19995ZM15 2.39995C21.9659 2.39995 27.6 8.03406 27.6 15C27.6 21.9658 21.9659 27.6 15 27.6C8.0341 27.6 2.4 21.9658 2.4 15C2.4 8.03406 8.0341 2.39995 15 2.39995ZM20.4527 8.42105C20.0423 8.42105 19.5812 8.5161 19.0418 8.7105C18.2042 9.0123 8.35244 13.1952 7.23164 13.671C6.59084 13.9434 5.39765 14.4501 5.39765 15.6585C5.39765 16.4595 5.86701 17.0325 6.79101 17.3625C7.28781 17.5395 8.46774 17.8971 9.15234 18.0855C9.44274 18.1653 9.75135 18.2062 10.0687 18.2062C10.6897 18.2062 11.3147 18.0515 11.8043 17.7785C11.8001 17.8793 11.8028 17.9812 11.8148 18.0832C11.8886 18.7132 12.2771 19.3057 12.8531 19.6687C13.2299 19.9063 16.3076 21.9684 16.7672 22.296C17.4128 22.7574 18.1265 23.0015 18.8297 23.0015C20.1737 23.0015 20.6246 21.6138 20.8418 20.9472C21.1568 19.9794 22.3363 12.1092 22.4695 10.7214C22.5601 9.77044 22.1638 8.98732 21.409 8.62612C21.1264 8.48992 20.8037 8.42105 20.4527 8.42105ZM20.4527 9.62105C20.6177 9.62105 20.765 9.64834 20.8898 9.70894C21.1736 9.84514 21.318 10.1488 21.2742 10.6078C21.129 12.1216 19.9524 19.8053 19.7016 20.5757C19.4868 21.2345 19.2605 21.8015 18.8297 21.8015C18.3989 21.8015 17.9283 21.6505 17.4645 21.3187C17.0007 20.9875 13.9208 18.9221 13.493 18.6527C13.118 18.4163 12.7211 17.827 13.2797 17.257C13.7399 16.7878 17.2307 13.3997 17.5289 13.1015C17.7509 12.8789 17.6471 12.6105 17.4293 12.6105C17.3543 12.6105 17.2645 12.6421 17.1715 12.7183C16.8067 13.0165 11.7209 16.4197 11.2805 16.6933C10.9889 16.8745 10.5373 17.005 10.0687 17.005C9.86895 17.005 9.66666 16.9811 9.47226 16.9277C8.79546 16.7411 7.65011 16.3936 7.19531 16.2316C6.75791 16.0756 6.59883 15.9261 6.59883 15.6585C6.59883 15.2781 7.13576 15.0156 7.70156 14.775C8.29916 14.5212 18.6396 10.13 19.4484 9.83901C19.8228 9.70341 20.1653 9.62105 20.4527 9.62105Z" fill="white"/>
</svg>
