<svg width="24" height="25" viewBox="0 0 24 25" fill="none" xmlns="http://www.w3.org/2000/svg">
<path d="M4.05431 9.00021L4.05439 3.96168L19.9458 3.9615L19.9457 9.00003L23 9L23.0001 2.48036C23.0001 1.66293 22.3173 1.00001 21.4707 1.00002L2.52956 1.00023C1.68367 1.00024 1.00012 1.66244 1.00011 2.48061L1 9.00025L4.05431 9.00021Z" fill="white"/>
<path d="M12.2822 10.1977L16.7165 15.4149C16.7165 15.4149 17.3911 16.0352 16.6595 16.0352C15.9279 16.0352 14.1608 16.0352 14.1608 16.0352C14.1608 16.0352 14.1608 16.4524 14.1608 17.0959C14.1607 18.9303 14.1607 22.2689 14.1607 23.63C14.1607 23.63 14.2599 24 13.6875 24C13.1105 24 10.5833 24.0001 10.1702 24.0001C9.75788 24.0001 9.76711 23.6885 9.76711 23.6885C9.76713 22.3686 9.76719 18.9147 9.76722 17.1401C9.76723 16.5648 9.76723 16.1918 9.76723 16.1918C9.76723 16.1918 8.35016 16.1918 7.46083 16.1918C6.57304 16.1918 7.24159 15.5424 7.24159 15.5424C7.24159 15.5424 11.0144 10.6659 11.5406 10.1543C11.9191 9.78351 12.2822 10.1977 12.2822 10.1977Z" fill="white"/>
</svg>
